<svg width="160" height="120" fill="none" xmlns="http://www.w3.org/2000/svg"><path d="M80 35.879l94 37.054-94 37.052-94-37.052 94-37.054z" fill="#ECF0F3"/><path d="M80.663 11.272l48.054 18.942c2.533.999 2.533 4.586 0 5.585L80.663 54.74a2.997 2.997 0 01-2.198 0L30.41 35.8c-2.533-.999-2.533-4.586 0-5.585l48.054-18.942a2.997 2.997 0 012.198 0z" fill="#ECF0F3" stroke="#18A0FB" stroke-width="2"/><path d="M81.078 56.834a1 1 0 00-1.415 0L73.3 63.198a1 1 0 001.414 1.414l5.657-5.656 5.657 5.656a1 1 0 001.414-1.414l-6.364-6.364zm-1.415 52.467a1 1 0 001.415 0l6.363-6.363a1 1 0 00-1.414-1.415l-5.657 5.657-5.657-5.657a1 1 0 00-1.414 1.415l6.364 6.363zm-.293-51.76v51.053h2V57.541h-2z" fill="#CDCDD0"/></svg>